<?xml version="1.0" encoding="UTF-8"?><!DOCTYPE svg PUBLIC "-//W3C//DTD SVG 1.1//EN" "http://www.w3.org/Graphics/SVG/1.1/DTD/svg11.dtd"><svg xmlns="http://www.w3.org/2000/svg" xmlns:xlink="http://www.w3.org/1999/xlink" version="1.1" width="24" height="24" viewBox="0 0 24 24"><path d="M7,5V7H21V5M7,13H21V11H7M7,19H21V17H7M4,16.67C3.26,16.67 2.67,17.27 2.67,18C2.67,18.73 3.27,19.33 4,19.33C4.73,19.33 5.33,18.73 5.33,18C5.33,17.27 4.74,16.67 4,16.67M4,4.5A1.5,1.5 0 0,0 2.5,6A1.5,1.5 0 0,0 4,7.5A1.5,1.5 0 0,0 5.5,6A1.5,1.5 0 0,0 4,4.5M4,10.5A1.5,1.5 0 0,0 2.5,12A1.5,1.5 0 0,0 4,13.5A1.5,1.5 0 0,0 5.5,12A1.5,1.5 0 0,0 4,10.5Z" /></svg>